<?xml version="1.0" encoding="utf-8"?>
<!-- Generator: Adobe Illustrator 19.1.0, SVG Export Plug-In . SVG Version: 6.00 Build 0)  -->
<svg version="1.1" id="Layer_1" xmlns="http://www.w3.org/2000/svg" xmlns:xlink="http://www.w3.org/1999/xlink" x="0px" y="0px"
	 viewBox="492.6 -18.5 36.9 36.9" style="enable-background:new 492.6 -18.5 36.9 36.9;" xml:space="preserve">
<path d="M523.2,0.1c0.1-0.5,0.1-1,0.1-1.3c0-1.9-0.3-1.9-1.5-1.9h-7.2c0.7-1.2,1.1-2.3,1.1-3.6c0-3.6-5.5-5.4-5.5-8.4
	c0-1.1,0.5-2,0.9-3.4c-2.5,0.7-4.6,3.2-4.6,5.9c0,4.6,5.4,4.7,5.4,8.1c0,0.4-0.1,0.8-0.2,1.3h-5.4c0.1-0.3,0.1-0.6,0.1-0.9
	c0-2.2-3.8-3.3-3.8-5.1c0-0.7,0.1-1.2,0.3-2c-1.2,0.5-2.7,1.9-2.7,3.5c0,2.6,3.1,2.8,3.5,4.4h-9.7c-1.2,0-1.5,0-1.5,1.9
	s0.7,5.9,2.7,10.7s4.3,6.9,5.9,8.3l0,0c0.5,0.4,1.1,0.7,1.8,0.7h9.8c0.7,0,1.4-0.3,1.8-0.7l0,0c0.9-0.7,1.9-1.7,3-3.2
	c0.5,0.2,0.9,0.4,1.5,0.5c0.8,0.2,1.6,0.3,2.4,0.3c2.3,0,4.4-0.9,5.8-2.5c1.3-1.4,2-3.3,2-5.2C529.4,3.9,526.7,0.8,523.2,0.1z
	 M521.6,12.3c-0.8,0-1.5-0.1-2.1-0.4c0.4-0.8,0.8-1.5,1.1-2.4c1-2.3,1.6-4.5,2.1-6.3c2.1,0.4,3.7,2.3,3.7,4.5
	C526.4,9.8,524.7,12.3,521.6,12.3z"/>
</svg>
